<mxfile host="app.diagrams.net" modified="2023-09-05T16:17:09.308Z" agent="Mozilla/5.0 (Windows NT 10.0; Win64; x64) AppleWebKit/537.36 (KHTML, like Gecko) Chrome/116.0.0.0 Safari/537.36" etag="DXSh6XOhD4EvjH2KsmMD" version="21.7.2" type="github">
  <diagram id="C5RBs43oDa-KdzZeNtuy" name="Page-1">
    <mxGraphModel dx="1195" dy="658" grid="1" gridSize="10" guides="1" tooltips="1" connect="1" arrows="1" fold="1" page="1" pageScale="1" pageWidth="3300" pageHeight="4681" background="none" math="0" shadow="0">
      <root>
        <object label="" id="WIyWlLk6GJQsqaUBKTNV-0">
          <mxCell />
        </object>
        <mxCell id="WIyWlLk6GJQsqaUBKTNV-1" parent="WIyWlLk6GJQsqaUBKTNV-0" />
        <mxCell id="qdC4ab1dp1rlwdVlYmfA-2" value="" style="edgeStyle=orthogonalEdgeStyle;rounded=0;orthogonalLoop=1;jettySize=auto;html=1;" edge="1" parent="WIyWlLk6GJQsqaUBKTNV-1" source="qdC4ab1dp1rlwdVlYmfA-0" target="qdC4ab1dp1rlwdVlYmfA-1">
          <mxGeometry relative="1" as="geometry" />
        </mxCell>
        <mxCell id="qdC4ab1dp1rlwdVlYmfA-0" value="Start" style="rounded=1;whiteSpace=wrap;html=1;" vertex="1" parent="WIyWlLk6GJQsqaUBKTNV-1">
          <mxGeometry x="30" y="160" width="120" height="60" as="geometry" />
        </mxCell>
        <mxCell id="qdC4ab1dp1rlwdVlYmfA-4" value="" style="edgeStyle=orthogonalEdgeStyle;rounded=0;orthogonalLoop=1;jettySize=auto;html=1;" edge="1" parent="WIyWlLk6GJQsqaUBKTNV-1" source="qdC4ab1dp1rlwdVlYmfA-1" target="qdC4ab1dp1rlwdVlYmfA-3">
          <mxGeometry relative="1" as="geometry" />
        </mxCell>
        <mxCell id="qdC4ab1dp1rlwdVlYmfA-1" value="Splash Screen" style="rounded=1;whiteSpace=wrap;html=1;" vertex="1" parent="WIyWlLk6GJQsqaUBKTNV-1">
          <mxGeometry x="180" y="160" width="120" height="60" as="geometry" />
        </mxCell>
        <mxCell id="qdC4ab1dp1rlwdVlYmfA-6" value="" style="edgeStyle=orthogonalEdgeStyle;rounded=0;orthogonalLoop=1;jettySize=auto;html=1;" edge="1" parent="WIyWlLk6GJQsqaUBKTNV-1" source="qdC4ab1dp1rlwdVlYmfA-3">
          <mxGeometry relative="1" as="geometry">
            <mxPoint x="470" y="190" as="targetPoint" />
          </mxGeometry>
        </mxCell>
        <mxCell id="qdC4ab1dp1rlwdVlYmfA-7" value="Yes" style="edgeLabel;html=1;align=center;verticalAlign=middle;resizable=0;points=[];" vertex="1" connectable="0" parent="qdC4ab1dp1rlwdVlYmfA-6">
          <mxGeometry x="-0.0328" y="-1" relative="1" as="geometry">
            <mxPoint as="offset" />
          </mxGeometry>
        </mxCell>
        <mxCell id="qdC4ab1dp1rlwdVlYmfA-10" value="" style="edgeStyle=orthogonalEdgeStyle;rounded=0;orthogonalLoop=1;jettySize=auto;html=1;" edge="1" parent="WIyWlLk6GJQsqaUBKTNV-1" source="qdC4ab1dp1rlwdVlYmfA-3">
          <mxGeometry relative="1" as="geometry">
            <mxPoint x="374" y="290" as="targetPoint" />
          </mxGeometry>
        </mxCell>
        <mxCell id="qdC4ab1dp1rlwdVlYmfA-11" value="No" style="edgeLabel;html=1;align=center;verticalAlign=middle;resizable=0;points=[];" vertex="1" connectable="0" parent="qdC4ab1dp1rlwdVlYmfA-10">
          <mxGeometry x="-0.0816" y="-1" relative="1" as="geometry">
            <mxPoint as="offset" />
          </mxGeometry>
        </mxCell>
        <mxCell id="qdC4ab1dp1rlwdVlYmfA-3" value="User Auth" style="rhombus;whiteSpace=wrap;html=1;" vertex="1" parent="WIyWlLk6GJQsqaUBKTNV-1">
          <mxGeometry x="334" y="150" width="80" height="80" as="geometry" />
        </mxCell>
        <mxCell id="qdC4ab1dp1rlwdVlYmfA-14" style="edgeStyle=orthogonalEdgeStyle;rounded=0;orthogonalLoop=1;jettySize=auto;html=1;entryX=0;entryY=0.5;entryDx=0;entryDy=0;" edge="1" parent="WIyWlLk6GJQsqaUBKTNV-1" source="qdC4ab1dp1rlwdVlYmfA-8" target="qdC4ab1dp1rlwdVlYmfA-13">
          <mxGeometry relative="1" as="geometry" />
        </mxCell>
        <mxCell id="qdC4ab1dp1rlwdVlYmfA-16" style="edgeStyle=orthogonalEdgeStyle;rounded=0;orthogonalLoop=1;jettySize=auto;html=1;entryX=0;entryY=0.5;entryDx=0;entryDy=0;" edge="1" parent="WIyWlLk6GJQsqaUBKTNV-1" source="qdC4ab1dp1rlwdVlYmfA-8" target="qdC4ab1dp1rlwdVlYmfA-15">
          <mxGeometry relative="1" as="geometry" />
        </mxCell>
        <mxCell id="qdC4ab1dp1rlwdVlYmfA-18" style="edgeStyle=orthogonalEdgeStyle;rounded=0;orthogonalLoop=1;jettySize=auto;html=1;entryX=0;entryY=0.5;entryDx=0;entryDy=0;" edge="1" parent="WIyWlLk6GJQsqaUBKTNV-1" source="qdC4ab1dp1rlwdVlYmfA-8" target="qdC4ab1dp1rlwdVlYmfA-17">
          <mxGeometry relative="1" as="geometry" />
        </mxCell>
        <mxCell id="qdC4ab1dp1rlwdVlYmfA-20" style="edgeStyle=orthogonalEdgeStyle;rounded=0;orthogonalLoop=1;jettySize=auto;html=1;entryX=0;entryY=0.5;entryDx=0;entryDy=0;" edge="1" parent="WIyWlLk6GJQsqaUBKTNV-1" target="qdC4ab1dp1rlwdVlYmfA-19">
          <mxGeometry relative="1" as="geometry">
            <mxPoint x="585" y="190" as="sourcePoint" />
            <mxPoint x="690" y="300" as="targetPoint" />
            <Array as="points">
              <mxPoint x="615" y="190" />
              <mxPoint x="615" y="300" />
            </Array>
          </mxGeometry>
        </mxCell>
        <mxCell id="qdC4ab1dp1rlwdVlYmfA-24" style="edgeStyle=orthogonalEdgeStyle;rounded=0;orthogonalLoop=1;jettySize=auto;html=1;" edge="1" parent="WIyWlLk6GJQsqaUBKTNV-1" target="qdC4ab1dp1rlwdVlYmfA-23">
          <mxGeometry relative="1" as="geometry">
            <mxPoint x="585" y="190" as="sourcePoint" />
            <mxPoint x="815" y="360" as="targetPoint" />
            <Array as="points">
              <mxPoint x="615" y="190" />
              <mxPoint x="615" y="360" />
            </Array>
          </mxGeometry>
        </mxCell>
        <mxCell id="qdC4ab1dp1rlwdVlYmfA-35" style="edgeStyle=orthogonalEdgeStyle;rounded=0;orthogonalLoop=1;jettySize=auto;html=1;entryX=0;entryY=0.5;entryDx=0;entryDy=0;" edge="1" parent="WIyWlLk6GJQsqaUBKTNV-1" source="qdC4ab1dp1rlwdVlYmfA-8" target="qdC4ab1dp1rlwdVlYmfA-34">
          <mxGeometry relative="1" as="geometry" />
        </mxCell>
        <mxCell id="qdC4ab1dp1rlwdVlYmfA-37" style="edgeStyle=orthogonalEdgeStyle;rounded=0;orthogonalLoop=1;jettySize=auto;html=1;entryX=0;entryY=0.5;entryDx=0;entryDy=0;" edge="1" parent="WIyWlLk6GJQsqaUBKTNV-1" source="qdC4ab1dp1rlwdVlYmfA-8" target="qdC4ab1dp1rlwdVlYmfA-36">
          <mxGeometry relative="1" as="geometry" />
        </mxCell>
        <mxCell id="qdC4ab1dp1rlwdVlYmfA-8" value="Home Screen" style="rounded=1;whiteSpace=wrap;html=1;" vertex="1" parent="WIyWlLk6GJQsqaUBKTNV-1">
          <mxGeometry x="470" y="160" width="120" height="60" as="geometry" />
        </mxCell>
        <mxCell id="qdC4ab1dp1rlwdVlYmfA-12" value="Signup/Login Screen" style="rounded=1;whiteSpace=wrap;html=1;" vertex="1" parent="WIyWlLk6GJQsqaUBKTNV-1">
          <mxGeometry x="314" y="290" width="120" height="60" as="geometry" />
        </mxCell>
        <mxCell id="qdC4ab1dp1rlwdVlYmfA-13" value="User Profile" style="rounded=1;whiteSpace=wrap;html=1;" vertex="1" parent="WIyWlLk6GJQsqaUBKTNV-1">
          <mxGeometry x="640" y="120" width="80" height="40" as="geometry" />
        </mxCell>
        <mxCell id="qdC4ab1dp1rlwdVlYmfA-22" style="edgeStyle=orthogonalEdgeStyle;rounded=0;orthogonalLoop=1;jettySize=auto;html=1;entryX=0.5;entryY=0;entryDx=0;entryDy=0;" edge="1" parent="WIyWlLk6GJQsqaUBKTNV-1" source="qdC4ab1dp1rlwdVlYmfA-15" target="qdC4ab1dp1rlwdVlYmfA-19">
          <mxGeometry relative="1" as="geometry" />
        </mxCell>
        <mxCell id="qdC4ab1dp1rlwdVlYmfA-26" style="edgeStyle=orthogonalEdgeStyle;rounded=0;orthogonalLoop=1;jettySize=auto;html=1;entryX=0.5;entryY=0;entryDx=0;entryDy=0;" edge="1" parent="WIyWlLk6GJQsqaUBKTNV-1" source="qdC4ab1dp1rlwdVlYmfA-15" target="qdC4ab1dp1rlwdVlYmfA-23">
          <mxGeometry relative="1" as="geometry" />
        </mxCell>
        <mxCell id="qdC4ab1dp1rlwdVlYmfA-15" value="Catalog&lt;br&gt;Screen" style="rounded=1;whiteSpace=wrap;html=1;" vertex="1" parent="WIyWlLk6GJQsqaUBKTNV-1">
          <mxGeometry x="640" y="170" width="80" height="40" as="geometry" />
        </mxCell>
        <mxCell id="qdC4ab1dp1rlwdVlYmfA-21" style="edgeStyle=orthogonalEdgeStyle;rounded=0;orthogonalLoop=1;jettySize=auto;html=1;" edge="1" parent="WIyWlLk6GJQsqaUBKTNV-1" source="qdC4ab1dp1rlwdVlYmfA-17" target="qdC4ab1dp1rlwdVlYmfA-19">
          <mxGeometry relative="1" as="geometry" />
        </mxCell>
        <mxCell id="qdC4ab1dp1rlwdVlYmfA-27" style="edgeStyle=orthogonalEdgeStyle;rounded=0;orthogonalLoop=1;jettySize=auto;html=1;entryX=0.5;entryY=0;entryDx=0;entryDy=0;" edge="1" parent="WIyWlLk6GJQsqaUBKTNV-1" source="qdC4ab1dp1rlwdVlYmfA-17" target="qdC4ab1dp1rlwdVlYmfA-23">
          <mxGeometry relative="1" as="geometry" />
        </mxCell>
        <mxCell id="qdC4ab1dp1rlwdVlYmfA-17" value="Wishlist" style="rounded=1;whiteSpace=wrap;html=1;" vertex="1" parent="WIyWlLk6GJQsqaUBKTNV-1">
          <mxGeometry x="640" y="220" width="80" height="40" as="geometry" />
        </mxCell>
        <mxCell id="qdC4ab1dp1rlwdVlYmfA-25" style="edgeStyle=orthogonalEdgeStyle;rounded=0;orthogonalLoop=1;jettySize=auto;html=1;entryX=0.5;entryY=0;entryDx=0;entryDy=0;" edge="1" parent="WIyWlLk6GJQsqaUBKTNV-1" source="qdC4ab1dp1rlwdVlYmfA-19" target="qdC4ab1dp1rlwdVlYmfA-23">
          <mxGeometry relative="1" as="geometry" />
        </mxCell>
        <mxCell id="qdC4ab1dp1rlwdVlYmfA-19" value="Product" style="rounded=1;whiteSpace=wrap;html=1;" vertex="1" parent="WIyWlLk6GJQsqaUBKTNV-1">
          <mxGeometry x="730" y="280" width="80" height="40" as="geometry" />
        </mxCell>
        <mxCell id="qdC4ab1dp1rlwdVlYmfA-30" value="" style="edgeStyle=orthogonalEdgeStyle;rounded=0;orthogonalLoop=1;jettySize=auto;html=1;" edge="1" parent="WIyWlLk6GJQsqaUBKTNV-1" source="qdC4ab1dp1rlwdVlYmfA-23" target="qdC4ab1dp1rlwdVlYmfA-28">
          <mxGeometry relative="1" as="geometry" />
        </mxCell>
        <mxCell id="qdC4ab1dp1rlwdVlYmfA-23" value="Cart" style="rounded=1;whiteSpace=wrap;html=1;" vertex="1" parent="WIyWlLk6GJQsqaUBKTNV-1">
          <mxGeometry x="820" y="340" width="80" height="40" as="geometry" />
        </mxCell>
        <mxCell id="qdC4ab1dp1rlwdVlYmfA-32" value="" style="edgeStyle=orthogonalEdgeStyle;rounded=0;orthogonalLoop=1;jettySize=auto;html=1;" edge="1" parent="WIyWlLk6GJQsqaUBKTNV-1" source="qdC4ab1dp1rlwdVlYmfA-28" target="qdC4ab1dp1rlwdVlYmfA-29">
          <mxGeometry relative="1" as="geometry" />
        </mxCell>
        <mxCell id="qdC4ab1dp1rlwdVlYmfA-28" value="Checkout" style="rounded=1;whiteSpace=wrap;html=1;" vertex="1" parent="WIyWlLk6GJQsqaUBKTNV-1">
          <mxGeometry x="920" y="340" width="80" height="40" as="geometry" />
        </mxCell>
        <mxCell id="qdC4ab1dp1rlwdVlYmfA-29" value="Order Confirmation" style="rounded=1;whiteSpace=wrap;html=1;" vertex="1" parent="WIyWlLk6GJQsqaUBKTNV-1">
          <mxGeometry x="1020" y="340" width="80" height="40" as="geometry" />
        </mxCell>
        <mxCell id="qdC4ab1dp1rlwdVlYmfA-34" value="Voucher Screen" style="rounded=1;whiteSpace=wrap;html=1;" vertex="1" parent="WIyWlLk6GJQsqaUBKTNV-1">
          <mxGeometry x="640" y="70" width="80" height="40" as="geometry" />
        </mxCell>
        <mxCell id="qdC4ab1dp1rlwdVlYmfA-36" value="Flash Sale" style="rounded=1;whiteSpace=wrap;html=1;" vertex="1" parent="WIyWlLk6GJQsqaUBKTNV-1">
          <mxGeometry x="640" y="20" width="80" height="40" as="geometry" />
        </mxCell>
      </root>
    </mxGraphModel>
  </diagram>
</mxfile>
